<svg width="19" height="18" viewBox="0 0 19 18" fill="none" xmlns="http://www.w3.org/2000/svg">
<g clip-path="url(#clip0)">
<path d="M11.9385 9.09224L18.0067 12.9285V5.09399L11.9385 9.09224Z" fill="white"/>
<path d="M0.00683594 5.09399V12.9285L6.07509 9.09224L0.00683594 5.09399Z" fill="white"/>
<path d="M16.8823 2.8125H1.13227C0.570891 2.8125 0.125391 3.231 0.0410156 3.76988L9.00726 9.67725L17.9735 3.76988C17.8891 3.231 17.4436 2.8125 16.8823 2.8125Z" fill="white"/>
<path d="M10.9072 9.77188L9.31537 10.8204C9.22087 10.8823 9.11399 10.9126 9.00599 10.9126C8.89799 10.9126 8.79112 10.8823 8.69662 10.8204L7.10474 9.77075L0.0419922 14.2381C0.128617 14.7725 0.571867 15.1876 1.13099 15.1876H16.881C17.4401 15.1876 17.8834 14.7725 17.97 14.2381L10.9072 9.77188Z" fill="white"/>
</g>
<defs>
<clipPath id="clip0">
<rect width="18" height="18" fill="white" transform="translate(0.00683594)"/>
</clipPath>
</defs>
</svg>
