<svg width="19" height="18" viewBox="0 0 19 18" fill="none" xmlns="http://www.w3.org/2000/svg">
<g clip-path="url(#clip0)">
<path d="M18.3329 18.0002V17.9994H18.3374V11.3979C18.3374 8.16841 17.6421 5.68066 13.8666 5.68066C12.0516 5.68066 10.8336 6.67666 10.3364 7.62091H10.2839V5.98216H6.7041V17.9994H10.4316V12.0489C10.4316 10.4822 10.7286 8.96716 12.6689 8.96716C14.5806 8.96716 14.6091 10.7552 14.6091 12.1494V18.0002H18.3329Z" fill="white"/>
<path d="M0.633789 5.98267H4.36579V17.9999H0.633789V5.98267Z" fill="white"/>
<path d="M2.49841 0C1.30516 0 0.336914 0.96825 0.336914 2.1615C0.336914 3.35475 1.30516 4.34325 2.49841 4.34325C3.69166 4.34325 4.65991 3.35475 4.65991 2.1615C4.65916 0.96825 3.69091 0 2.49841 0V0Z" fill="white"/>
</g>
<defs>
<clipPath id="clip0">
<rect width="18" height="18" fill="white" transform="translate(0.336914)"/>
</clipPath>
</defs>
</svg>
