<svg width="19" height="18" viewBox="0 0 19 18" fill="none" xmlns="http://www.w3.org/2000/svg">
<g clip-path="url(#clip0)">
<path d="M14.2729 11.9954C14.0634 11.9954 13.854 11.9151 13.6945 11.7556C13.3744 11.4357 13.3744 10.9186 13.6945 10.5987L15.8748 8.41832C16.6277 7.67285 17.0408 6.67629 17.0408 5.61022C17.0408 3.4192 15.2579 1.63641 13.0669 1.63641C12.0016 1.63641 11.005 2.0496 10.2613 2.79987L8.07839 4.9828C7.75854 5.30265 7.24138 5.30265 6.92153 4.9828C6.60168 4.6628 6.60168 4.14579 6.92153 3.82579L9.10192 1.6454C10.1526 0.585022 11.5614 0 13.0669 0C16.1604 0 18.6771 2.51672 18.6771 5.61022C18.6771 7.11659 18.0921 8.52544 17.0286 9.57848L14.8506 11.7556C14.691 11.9151 14.4823 11.9954 14.2729 11.9954Z" fill="#1F325A"/>
<path d="M6.28698 17.9999C3.19348 17.9999 0.676758 15.4831 0.676758 12.3896C0.676758 10.8834 1.26178 9.47441 2.32546 8.42152L4.50345 6.24428C4.8233 5.92443 5.34045 5.92443 5.66031 6.24428C5.98016 6.56414 5.98016 7.08129 5.66031 7.40114L3.47992 9.58168C2.72636 10.327 2.31317 11.3236 2.31317 12.3896C2.31317 14.5807 4.09595 16.3636 6.28698 16.3636C7.3523 16.3636 8.34886 15.9504 9.09253 15.2001L11.2755 13.0172C11.5953 12.6972 12.1125 12.6972 12.4323 13.0172C12.7523 13.3371 12.7523 13.8542 12.4323 14.1741L10.2519 16.3546C9.20145 17.4148 7.79245 17.9999 6.28698 17.9999Z" fill="#1F325A"/>
<path d="M6.40426 13.0909C6.19482 13.0909 5.98538 13.0107 5.82583 12.8512C5.50597 12.5313 5.50597 12.0142 5.82583 11.6943L12.3713 5.14882C12.6912 4.82897 13.2083 4.82897 13.5282 5.14882C13.8482 5.46883 13.8482 5.98583 13.5282 6.30568L6.98269 12.8512C6.82328 13.0107 6.6137 13.0909 6.40426 13.0909Z" fill="#1F325A"/>
</g>
<defs>
<clipPath id="clip0">
<rect width="18" height="18" fill="white" transform="translate(0.676758)"/>
</clipPath>
</defs>
</svg>
