<svg width="19" height="18" viewBox="0 0 19 18" fill="none" xmlns="http://www.w3.org/2000/svg">
<g clip-path="url(#clip0)">
<path d="M16.8204 5.33475C17.5524 4.815 18.1682 4.16625 18.6699 3.41925V3.4185C18.0002 3.71175 17.2877 3.90675 16.5437 4.00125C17.3087 3.5445 17.8929 2.82675 18.1674 1.962C17.4542 2.38725 16.6667 2.68725 15.8274 2.85525C15.1502 2.13375 14.1849 1.6875 13.1319 1.6875C11.0889 1.6875 9.44417 3.34575 9.44417 5.37825C9.44417 5.67075 9.46892 5.952 9.52967 6.21975C6.46217 6.06975 3.74717 4.59975 1.92317 2.3595C1.60517 2.91225 1.41767 3.5445 1.41767 4.22475C1.41767 5.50275 2.07542 6.63525 3.05717 7.2915C2.46392 7.28025 1.88267 7.10775 1.38992 6.837V6.8775C1.38992 8.67075 2.66867 10.1602 4.34642 10.5037C4.04567 10.5863 3.71867 10.6252 3.37892 10.6252C3.14267 10.6252 2.90417 10.6118 2.68067 10.5623C3.15842 12.0233 4.51592 13.098 6.12842 13.1332C4.87292 14.115 3.27842 14.7067 1.55267 14.7067C1.25042 14.7067 0.960172 14.6932 0.669922 14.6565C2.30492 15.7102 4.24142 16.3125 6.33092 16.3125C12.8432 16.3125 17.0874 10.8795 16.8204 5.33475Z" fill="white"/>
</g>
<defs>
<clipPath id="clip0">
<rect width="18" height="18" fill="white" transform="translate(0.669922)"/>
</clipPath>
</defs>
</svg>
